<svg version="1.1" id="Layer_1" xmlns="http://www.w3.org/2000/svg" xmlns:xlink="http://www.w3.org/1999/xlink" x="0px" y="0px"
	 width="100%" viewBox="0 0 1024 1024" enable-background="new 0 0 1024 1024" xml:space="preserve">
<path fill="#000000" opacity="1.000000" stroke="none" 
	d="
M390.812988,802.342224 
	C324.195557,779.762695 265.145020,745.018555 213.456436,697.938049 
	C188.403793,675.118896 165.514404,650.222351 145.131714,623.102478 
	C135.644424,610.479309 135.860046,601.497253 145.650360,589.256836 
	C177.846527,549.003235 213.730392,512.473877 255.232910,481.731720 
	C298.313568,449.820709 345.352417,425.604492 396.721863,409.994324 
	C427.716339,400.575745 459.290924,394.584686 491.698395,392.533661 
	C561.120911,388.140015 626.663330,402.495697 689.332825,431.861816 
	C746.731812,458.758270 797.011719,495.548248 841.268005,540.719604 
	C856.665710,556.435730 871.052979,573.082275 884.615112,590.413818 
	C893.025818,601.162109 893.361633,610.359375 885.186768,621.473694 
	C867.674377,645.283203 847.920837,667.184204 826.654358,687.667114 
	C801.625549,711.773682 774.364319,733.082886 744.928528,751.622131 
	C718.333984,768.372009 689.906921,781.430969 661.285156,794.182800 
	C634.742249,806.008423 606.664062,812.124939 578.301086,817.262268 
	C556.795044,821.157654 535.046387,822.838989 513.228210,822.853088 
	C471.442810,822.880005 430.768768,815.848206 390.812988,802.342224 
M441.277588,717.206360 
	C444.837250,719.365051 448.343750,721.617737 451.965576,723.666504 
	C469.047180,733.329224 487.563202,737.592834 507.039978,737.418884 
	C520.643005,737.297302 534.289307,737.236877 547.562317,733.203003 
	C572.842163,725.520142 593.726257,711.155640 611.000366,691.484436 
	C638.289673,660.408142 650.039062,624.480896 642.566589,583.354248 
	C630.401428,516.400024 568.678162,467.641571 495.436707,475.646729 
	C460.961151,479.414825 431.796112,495.097534 409.843781,522.222046 
	C378.894653,560.463074 370.465240,603.357056 387.181152,650.047546 
	C397.266724,678.218445 416.266876,699.820923 441.277588,717.206360 
M693.430176,494.138977 
	C672.832336,481.620636 648.356506,470.906128 642.597961,472.630127 
	C676.600159,511.079010 693.861206,555.918945 693.854675,606.790222 
	C693.848083,657.778381 676.561096,702.691833 642.288452,741.076599 
	C644.821472,742.099060 646.134094,741.215027 647.478210,740.655457 
	C670.635742,731.013306 692.197632,718.371216 713.301208,704.985107 
	C731.885315,693.197021 749.127380,679.512390 766.448914,665.944092 
	C785.129761,651.311218 802.626038,635.449707 818.527283,617.859924 
	C825.893738,609.711243 825.727722,603.433350 818.935181,595.813477 
	C808.840820,584.489441 798.300720,573.644714 786.866882,563.638855 
	C757.741821,538.151245 728.129517,513.345581 693.430176,494.138977 
M336.279602,655.976868 
	C330.364960,632.312256 329.095306,608.325745 331.661346,584.138916 
	C335.676422,546.294067 349.426453,512.351501 372.940979,482.383026 
	C373.954102,481.091766 375.980957,480.102417 375.085175,477.822418 
	C372.870972,476.874817 371.108246,478.123901 369.361725,478.915161 
	C352.213196,486.684052 335.277771,494.891327 319.373962,505.021759 
	C299.256592,517.836243 280.421783,532.349731 262.382660,547.965576 
	C245.377930,562.686035 228.555298,577.573669 212.883392,593.726135 
	C202.848846,604.068359 202.835403,609.677856 212.699142,619.959167 
	C230.595764,638.613525 249.346085,656.344360 269.882507,672.072998 
	C300.719727,695.690857 332.022339,718.618164 368.130310,733.871521 
	C370.021240,734.670349 371.800720,736.320923 375.441406,734.622925 
	C357.052979,711.194275 343.573181,685.526489 336.279602,655.976868 
z"/>
<path fill="#000000" opacity="1.000000" stroke="none" 
	d="
M487.297058,274.719971 
	C463.528076,255.619507 440.871338,235.624252 414.709045,220.313477 
	C392.465759,207.296204 368.822144,197.840424 343.039612,195.544083 
	C286.829834,190.537735 240.883987,209.578400 206.299179,255.011215 
	C188.803314,277.994934 178.420761,303.678986 174.344055,332.066345 
	C172.477570,345.063232 171.003830,358.116180 169.312180,371.138519 
	C167.400848,385.851898 157.675003,391.974060 145.259491,386.323120 
	C139.104599,383.521729 136.702408,378.071442 135.736771,371.978790 
	C133.585144,358.403259 134.181854,344.672943 135.055893,331.086060 
	C136.951721,301.615295 143.796692,273.197540 156.179291,246.309097 
	C173.572678,208.539871 197.314713,175.871201 233.041107,153.236053 
	C256.371796,138.454453 281.798737,129.870148 309.428650,127.587463 
	C356.973145,123.659515 399.444489,137.826706 438.895996,163.145950 
	C468.007446,181.829132 494.145752,204.328323 520.383423,226.700806 
	C549.286682,251.346207 578.086304,276.147247 611.016541,295.470123 
	C634.614990,309.317261 659.917542,317.791840 687.372742,319.829254 
	C734.072083,323.294739 774.296204,308.905426 806.601074,275.134338 
	C833.497559,247.017120 849.466003,213.209625 852.901367,174.031616 
	C853.847351,163.243439 855.101074,152.522293 857.972473,142.051819 
	C860.434265,133.074966 865.255005,128.553848 871.990295,128.816696 
	C880.869629,129.163208 887.081238,134.703217 888.209595,144.156921 
	C890.289490,161.582794 890.087341,179.074799 888.051147,196.481583 
	C884.359436,228.040710 875.481628,258.113129 860.460632,286.161926 
	C837.242798,329.516632 804.294312,362.394562 757.363098,379.577576 
	C715.383728,394.947540 673.584961,393.800598 632.024597,377.536377 
	C605.005371,366.962708 581.660095,350.485748 559.006165,332.832001 
	C534.827332,313.989990 511.227081,294.433929 487.297058,274.719971 
z"/>
<path fill="#000000" opacity="1.000000" stroke="none" 
	d="
M211.000092,849.646667 
	C426.940125,849.646667 642.380127,849.653076 857.820129,849.617126 
	C864.039001,849.616089 870.114502,849.965210 875.894470,852.552429 
	C885.098633,856.672363 889.834839,864.994324 889.194458,876.100281 
	C888.579285,886.770020 882.821899,894.342712 873.109314,897.217651 
	C867.472290,898.886292 861.713440,899.349731 855.836670,899.347717 
	C665.556396,899.282959 475.276154,899.265808 284.995911,899.250854 
	C245.840302,899.247803 206.684677,899.271790 167.529099,899.312378 
	C163.516312,899.316528 159.544952,899.052490 155.619690,898.216187 
	C142.102448,895.335938 133.846329,884.951599 134.973953,872.260376 
	C136.206070,858.393188 145.424805,849.898010 160.014648,849.717773 
	C176.840851,849.509888 193.671417,849.655090 211.000092,849.646667 
z"/>
<path fill="#000000" opacity="1.000000" stroke="none" 
	d="
M563.806274,667.854248 
	C526.957458,697.436157 470.668274,683.789185 448.833649,650.490906 
	C435.034729,629.447266 434.254517,606.865112 441.731415,583.467651 
	C442.846954,579.976685 444.847382,580.358276 447.521210,581.525940 
	C454.980774,584.783630 462.324554,588.411865 470.696381,588.876770 
	C486.726624,589.766846 502.203552,576.599487 503.771210,560.531128 
	C504.568481,552.358948 504.089050,544.218323 502.113281,536.240173 
	C501.231293,532.678589 502.186676,530.980591 505.906403,530.412292 
	C521.298523,528.060791 535.702148,530.481079 549.065735,538.697815 
	C568.283508,550.514099 584.001465,565.694458 589.021423,588.301514 
	C595.856018,619.080750 587.203369,645.836731 563.806274,667.854248 
z"/>
</svg>