<svg version="1.1" id="Layer_1" xmlns="http://www.w3.org/2000/svg" xmlns:xlink="http://www.w3.org/1999/xlink" x="0px" y="0px"
	 width="100%" viewBox="0 0 320 320" style="background-color:green" enable-background="new 0 0 320 320" xml:space="preserve">
<path fill="#000000" opacity="1.000000" stroke="none" 
	d="
M202.970123,240.250458 
	C179.371872,248.278366 155.868515,249.125809 132.625885,241.276596 
	C105.077255,231.973206 82.756477,215.018509 65.140999,191.905777 
	C63.192955,189.349823 61.891960,186.915039 64.564941,183.504517 
	C83.093277,159.863724 105.690239,141.732956 134.722107,133.008560 
	C161.004944,125.110283 187.033569,127.087730 212.029922,138.551453 
	C234.233734,148.734482 252.365173,164.090134 267.311584,183.384933 
	C270.318176,187.266251 268.448547,189.786072 266.295288,192.568558 
	C251.139038,212.153412 232.580154,227.431931 209.657715,237.168427 
	C207.519150,238.076813 205.444687,239.136063 202.970123,240.250458 
M133.159378,169.679871 
	C128.669205,178.261841 127.253601,187.241959 129.704300,196.706100 
	C133.467636,211.239456 147.777161,223.756165 161.610535,224.638382 
	C179.803741,225.798660 194.831482,216.388443 201.172089,200.322037 
	C207.034409,185.467590 200.115234,166.201660 189.249786,158.148590 
	C170.850861,144.511963 144.874130,149.144852 133.159378,169.679871 
M226.947189,211.434235 
	C235.240936,205.535934 242.963821,198.992340 249.908951,191.525009 
	C252.687866,188.537140 252.833160,186.045364 249.753387,183.115112 
	C241.919907,175.661926 234.211487,168.086838 225.250961,161.937378 
	C217.751221,156.790421 209.560974,153.116486 200.306839,149.370850 
	C221.578644,180.398682 221.458939,199.413513 199.943619,225.559494 
	C209.881088,222.085449 218.557358,217.835220 226.947189,211.434235 
M104.181343,163.691269 
	C96.293823,169.801895 88.779877,176.322220 81.891754,183.563797 
	C79.400078,186.183334 79.111229,188.265503 81.758041,191.142426 
	C90.952400,201.136200 101.475510,209.539490 112.876343,216.737244 
	C118.172195,220.080704 123.953537,222.986969 131.486389,225.159409 
	C121.266243,213.392365 115.581879,201.117950 115.810722,186.913406 
	C116.039871,172.690002 121.312325,160.206985 132.712524,149.207962 
	C121.763985,152.963867 113.007126,157.601776 104.181343,163.691269 
z"/>
<path fill="#000000" opacity="1.000000" stroke="none" 
	d="
M77.606277,95.628983 
	C73.285706,103.239494 72.311272,111.311333 71.389488,119.444412 
	C71.032578,122.593529 70.999039,127.114388 66.415298,126.705559 
	C62.001579,126.311897 61.905838,121.939720 61.818287,118.449280 
	C61.425983,102.809296 65.659042,88.467018 74.779610,75.770119 
	C90.864815,53.377605 118.853867,48.674141 143.565903,63.895805 
	C157.401337,72.417892 168.726517,84.097374 181.565018,93.872040 
	C188.632126,99.252625 195.994156,104.233971 204.583801,106.607239 
	C227.997696,113.076370 249.079758,101.752235 257.365540,78.602158 
	C258.715485,74.830421 259.569122,70.959305 259.754517,66.915367 
	C259.867798,64.443649 260.325287,61.957054 260.913849,59.546913 
	C261.440765,57.389286 262.418640,55.270466 265.242340,55.647747 
	C267.779785,55.986782 268.922089,57.915897 269.151031,60.198067 
	C271.639923,85.007713 258.618652,117.836311 228.860077,125.722420 
	C211.998489,130.190811 196.779938,125.014687 183.294769,114.996033 
	C171.412552,106.168259 160.271805,96.349442 148.623932,87.196976 
	C139.604523,80.109856 129.598648,74.407417 118.015984,73.554955 
	C100.275368,72.249298 86.863739,80.042603 77.606277,95.628983 
z"/>
<path fill="#000000" opacity="1.000000" stroke="none" 
	d="
M165.000000,253.868591 
	C196.298218,253.877548 227.096436,253.885025 257.894653,253.898193 
	C259.558929,253.898911 261.240387,253.804642 262.884033,254.002411 
	C266.857361,254.480484 269.367615,256.487732 269.280853,260.809235 
	C269.199005,264.886292 266.743988,266.747131 262.993134,267.193939 
	C261.513519,267.370148 260.000427,267.286072 258.502594,267.286102 
	C196.573181,267.287689 134.643768,267.287476 72.714363,267.273163 
	C70.887970,267.272736 68.996552,267.393555 67.248940,266.979156 
	C63.734310,266.145874 61.831059,263.651764 61.981293,260.072845 
	C62.125095,256.647156 64.272011,254.610367 67.623772,254.074982 
	C69.252419,253.814819 70.942589,253.897797 72.604942,253.896927 
	C103.236626,253.880936 133.868317,253.875778 165.000000,253.868591 
z"/>
<path fill="#000000" opacity="1.000000" stroke="none" 
	d="
M167.795898,208.335358 
	C151.028152,208.317932 141.211838,195.241745 146.724838,179.900818 
	C151.113098,181.723083 155.641174,184.435852 160.317612,180.302963 
	C164.669632,176.456818 163.882004,171.780472 162.848450,166.476791 
	C169.879333,164.779556 175.330963,167.526962 180.061462,171.761856 
	C186.927353,177.908447 188.806351,185.820633 185.892227,194.399323 
	C183.104126,202.607040 177.129318,207.488800 167.795898,208.335358 
z"/>
</svg>