<svg xmlns="http://www.w3.org/2000/svg" width="1620" height="1620" viewBox="0 0 1620 1620" version="1.1"><path d="M 482.500 201.466 C 421.951 208.433, 367.625 234.092, 322.816 276.888 C 284.382 313.595, 248.748 372.044, 231.092 427.340 C 218.698 466.156, 213.273 499.984, 212.303 544.500 C 211.536 579.742, 213.389 593.134, 220.276 602.118 C 228.621 613.004, 246.773 614.859, 256.572 605.827 C 262.797 600.089, 264.412 594.174, 267.991 564 C 273.843 514.676, 278.901 490.235, 288.664 464.109 C 299.645 434.719, 322.291 400.288, 347.638 374.445 C 383.542 337.837, 423.802 316.860, 474.500 308.347 C 490.285 305.696, 536.647 305.683, 552.327 308.324 C 594.544 315.435, 631.786 330.690, 673 357.752 C 698.024 374.184, 719.159 390.674, 792.500 450.987 C 901.264 540.430, 937.822 566.938, 979.396 586.501 C 1006.884 599.437, 1034.696 607.939, 1065 612.671 C 1079.201 614.889, 1120.466 615.198, 1134.500 613.192 C 1201.058 603.678, 1258.407 574.691, 1303.694 527.672 C 1356.393 472.958, 1391.076 397.215, 1401.992 313 C 1406.259 280.090, 1405.678 232.232, 1400.856 219.344 C 1398.093 211.960, 1392.622 206.559, 1385.874 204.555 C 1372.566 200.603, 1363.016 205.321, 1358.186 218.234 C 1354.086 229.196, 1350.628 248.558, 1349.030 269.500 C 1347.071 295.187, 1342.657 315.385, 1333.875 338.854 C 1319.719 376.681, 1299.896 408.636, 1274 435.374 C 1253.630 456.406, 1235.044 469.988, 1209.500 482.508 C 1187.338 493.371, 1171.329 498.517, 1145.274 503.155 C 1128.126 506.207, 1088.001 506.493, 1070 503.691 C 1002.632 493.205, 953.125 466.903, 865.500 395.045 C 857.800 388.731, 835.075 369.594, 815 352.520 C 759.215 305.073, 731.652 283.458, 700 262.337 C 649.686 228.763, 605.507 210.825, 553.500 202.855 C 536.333 200.224, 499.550 199.505, 482.500 201.466 M 779 620.004 C 664.666 627.236, 550.058 665.571, 447.500 730.888 C 371.968 778.992, 301.599 843.067, 236.592 922.931 C 223.305 939.256, 219.010 946.764, 218.279 954.944 C 217.247 966.491, 221.113 974.095, 240.232 998.129 C 339.045 1122.343, 460.785 1210.755, 603.500 1261.946 C 657.640 1281.366, 704.573 1291.726, 763 1297.153 C 780.633 1298.791, 840.393 1298.790, 858 1297.151 C 898.056 1293.422, 927.218 1288.686, 963.500 1280.017 C 990.541 1273.557, 1025.976 1262.563, 1035.947 1257.540 C 1038.451 1256.279, 1052.868 1249.741, 1067.985 1243.012 C 1120.443 1219.659, 1151.715 1202.767, 1193 1175.483 C 1262.566 1129.509, 1325.872 1071.224, 1382.853 1000.686 C 1403.204 975.494, 1407.862 966.518, 1406.642 954.844 C 1405.735 946.174, 1402.326 939.986, 1389.885 924.429 C 1330.614 850.314, 1263.736 788.599, 1189.500 739.514 C 1086.358 671.315, 980.484 632.323, 869 621.476 C 849.696 619.597, 798.629 618.762, 779 620.004 M 1012.151 745.098 C 1077.170 816.608, 1105.505 909.789, 1091.446 1005.862 C 1082.423 1067.521, 1052.744 1129.182, 1011.599 1171.750 C 1008.276 1175.188, 1005.817 1178, 1006.134 1178 C 1007.180 1178, 1032.586 1167.156, 1043.139 1162.204 C 1057.444 1155.492, 1082.229 1142.139, 1096 1133.725 C 1102.325 1129.861, 1111.100 1124.663, 1115.500 1122.176 C 1132.887 1112.345, 1172.353 1083.941, 1211 1053.442 C 1238.140 1032.024, 1246.910 1024.195, 1273.600 997.555 C 1299.776 971.427, 1303.021 967.064, 1302.978 958.054 C 1302.946 951.444, 1300.337 946.684, 1290.895 936.007 C 1270.019 912.401, 1247.442 891.447, 1202.500 853.963 C 1137.891 800.077, 1078.622 764.552, 1011.651 739.570 L 1004.802 737.015 1012.151 745.098 M 583 754.850 C 527.471 779.729, 493.558 800.057, 446.222 836.839 C 401.237 871.794, 329.978 937.904, 324.178 950.066 C 319.092 960.728, 321.980 967.309, 340.061 986.262 C 379.459 1027.561, 420.090 1061.378, 483.075 1105.294 C 520.080 1131.095, 554.455 1149.915, 598.954 1168.737 L 602.409 1170.198 599.954 1167.216 C 587 1151.481, 582.531 1145.553, 574.162 1133 C 528.238 1064.115, 511.805 977.922, 528.595 894 C 539.012 841.934, 562.223 794.003, 596.755 753.250 C 599.668 749.813, 601.702 747.002, 601.276 747.005 C 600.849 747.007, 592.625 750.537, 583 754.850 M 793.500 748.621 C 742.564 752.723, 697.123 772.824, 661.616 806.959 C 634.238 833.281, 615.451 864.242, 605.159 900 C 598.372 923.578, 596.515 938.748, 597.329 963.952 C 597.982 984.146, 599.725 995.492, 604.894 1013.174 C 618.667 1060.290, 652.003 1104.577, 695.500 1133.545 C 724.782 1153.047, 751.088 1162.549, 783 1165.155 C 802.474 1166.745, 835.552 1165.651, 849.500 1162.957 C 888.552 1155.413, 925.276 1134.828, 956.696 1102.870 C 985.464 1073.610, 1003.749 1042.378, 1012.908 1006.857 C 1021.137 974.942, 1021.154 939.124, 1012.955 907.327 C 1003.161 869.341, 985.560 838.623, 957.440 810.440 C 925.131 778.057, 882.667 756.913, 837.211 750.573 C 825.770 748.978, 802.167 747.924, 793.500 748.621 M 800.791 838.324 C 797.101 839.017, 793.834 839.832, 793.531 840.135 C 793.228 840.438, 793.885 845.977, 794.990 852.443 C 800.210 882.976, 796.091 901.264, 780.538 916.605 C 761.838 935.050, 743.866 936.048, 708.500 920.603 C 704.100 918.682, 700.190 917.422, 699.812 917.805 C 698.324 919.307, 693.987 936.557, 692.411 947.235 C 687.049 983.572, 697.986 1018.310, 722.410 1042.518 C 744.816 1064.726, 774.656 1077.283, 810.583 1079.622 C 833.082 1081.087, 861.589 1073.339, 881.044 1060.472 C 891.246 1053.724, 905.294 1039.222, 911.851 1028.668 C 930.266 999.029, 937.380 960.539, 929.902 931 C 924.555 909.880, 914.584 893.225, 896.652 875.464 C 878.106 857.095, 858.442 844.985, 839 839.957 C 828.605 837.269, 810.518 836.496, 800.791 838.324 M 243.856 1344.508 C 230.508 1347.173, 220.404 1354.463, 215.698 1364.824 C 213.998 1368.567, 213.567 1371.496, 213.537 1379.500 C 213.517 1385, 214.069 1391.371, 214.764 1393.657 C 217.894 1403.955, 227.183 1413.002, 238.893 1417.156 L 245.500 1419.500 804.500 1419.782 C 1193.628 1419.978, 1365.475 1419.743, 1370 1419.007 C 1385.386 1416.506, 1396.342 1409.377, 1401.101 1398.770 C 1403.140 1394.226, 1403.468 1391.915, 1403.483 1382 C 1403.498 1371.682, 1403.233 1369.930, 1400.899 1364.954 C 1396.170 1354.872, 1389.042 1349.049, 1376.650 1345.143 C 1371.927 1343.654, 1325.057 1343.506, 811 1343.351 C 348.835 1343.211, 249.334 1343.414, 243.856 1344.508" stroke="none" fill="#000000" fill-rule="evenodd"/><path d="M 0 810.001 L 0 1620.001 810.250 1619.751 L 1620.500 1619.500 1620.751 809.750 L 1621.001 -0 810.501 -0 L 0 0 0 810.001 M 0.498 810.500 C 0.498 1256, 0.611 1438.100, 0.750 1215.168 C 0.889 992.235, 0.889 627.735, 0.750 405.168 C 0.611 182.600, 0.498 365, 0.498 810.500 M 482.500 201.466 C 421.951 208.433, 367.625 234.092, 322.816 276.888 C 284.382 313.595, 248.748 372.044, 231.092 427.340 C 218.698 466.156, 213.273 499.984, 212.303 544.500 C 211.536 579.742, 213.389 593.134, 220.276 602.118 C 228.621 613.004, 246.773 614.859, 256.572 605.827 C 262.797 600.089, 264.412 594.174, 267.991 564 C 273.843 514.676, 278.901 490.235, 288.664 464.109 C 299.645 434.719, 322.291 400.288, 347.638 374.445 C 383.542 337.837, 423.802 316.860, 474.500 308.347 C 490.285 305.696, 536.647 305.683, 552.327 308.324 C 594.544 315.435, 631.786 330.690, 673 357.752 C 698.024 374.184, 719.159 390.674, 792.500 450.987 C 901.264 540.430, 937.822 566.938, 979.396 586.501 C 1006.884 599.437, 1034.696 607.939, 1065 612.671 C 1079.201 614.889, 1120.466 615.198, 1134.500 613.192 C 1201.058 603.678, 1258.407 574.691, 1303.694 527.672 C 1356.393 472.958, 1391.076 397.215, 1401.992 313 C 1406.259 280.090, 1405.678 232.232, 1400.856 219.344 C 1398.093 211.960, 1392.622 206.559, 1385.874 204.555 C 1372.566 200.603, 1363.016 205.321, 1358.186 218.234 C 1354.086 229.196, 1350.628 248.558, 1349.030 269.500 C 1347.071 295.187, 1342.657 315.385, 1333.875 338.854 C 1319.719 376.681, 1299.896 408.636, 1274 435.374 C 1253.630 456.406, 1235.044 469.988, 1209.500 482.508 C 1187.338 493.371, 1171.329 498.517, 1145.274 503.155 C 1128.126 506.207, 1088.001 506.493, 1070 503.691 C 1002.632 493.205, 953.125 466.903, 865.500 395.045 C 857.800 388.731, 835.075 369.594, 815 352.520 C 759.215 305.073, 731.652 283.458, 700 262.337 C 649.686 228.763, 605.507 210.825, 553.500 202.855 C 536.333 200.224, 499.550 199.505, 482.500 201.466 M 779 620.004 C 664.666 627.236, 550.058 665.571, 447.500 730.888 C 371.968 778.992, 301.599 843.067, 236.592 922.931 C 223.305 939.256, 219.010 946.764, 218.279 954.944 C 217.247 966.491, 221.113 974.095, 240.232 998.129 C 339.045 1122.343, 460.785 1210.755, 603.500 1261.946 C 657.640 1281.366, 704.573 1291.726, 763 1297.153 C 780.633 1298.791, 840.393 1298.790, 858 1297.151 C 898.056 1293.422, 927.218 1288.686, 963.500 1280.017 C 990.541 1273.557, 1025.976 1262.563, 1035.947 1257.540 C 1038.451 1256.279, 1052.868 1249.741, 1067.985 1243.012 C 1120.443 1219.659, 1151.715 1202.767, 1193 1175.483 C 1262.566 1129.509, 1325.872 1071.224, 1382.853 1000.686 C 1403.204 975.494, 1407.862 966.518, 1406.642 954.844 C 1405.735 946.174, 1402.326 939.986, 1389.885 924.429 C 1330.614 850.314, 1263.736 788.599, 1189.500 739.514 C 1086.358 671.315, 980.484 632.323, 869 621.476 C 849.696 619.597, 798.629 618.762, 779 620.004 M 1012.151 745.098 C 1077.170 816.608, 1105.505 909.789, 1091.446 1005.862 C 1082.423 1067.521, 1052.744 1129.182, 1011.599 1171.750 C 1008.276 1175.188, 1005.817 1178, 1006.134 1178 C 1007.180 1178, 1032.586 1167.156, 1043.139 1162.204 C 1057.444 1155.492, 1082.229 1142.139, 1096 1133.725 C 1102.325 1129.861, 1111.100 1124.663, 1115.500 1122.176 C 1132.887 1112.345, 1172.353 1083.941, 1211 1053.442 C 1238.140 1032.024, 1246.910 1024.195, 1273.600 997.555 C 1299.776 971.427, 1303.021 967.064, 1302.978 958.054 C 1302.946 951.444, 1300.337 946.684, 1290.895 936.007 C 1270.019 912.401, 1247.442 891.447, 1202.500 853.963 C 1137.891 800.077, 1078.622 764.552, 1011.651 739.570 L 1004.802 737.015 1012.151 745.098 M 583 754.850 C 527.471 779.729, 493.558 800.057, 446.222 836.839 C 401.237 871.794, 329.978 937.904, 324.178 950.066 C 319.092 960.728, 321.980 967.309, 340.061 986.262 C 379.459 1027.561, 420.090 1061.378, 483.075 1105.294 C 520.080 1131.095, 554.455 1149.915, 598.954 1168.737 L 602.409 1170.198 599.954 1167.216 C 587 1151.481, 582.531 1145.553, 574.162 1133 C 528.238 1064.115, 511.805 977.922, 528.595 894 C 539.012 841.934, 562.223 794.003, 596.755 753.250 C 599.668 749.813, 601.702 747.002, 601.276 747.005 C 600.849 747.007, 592.625 750.537, 583 754.850 M 793.500 748.621 C 742.564 752.723, 697.123 772.824, 661.616 806.959 C 634.238 833.281, 615.451 864.242, 605.159 900 C 598.372 923.578, 596.515 938.748, 597.329 963.952 C 597.982 984.146, 599.725 995.492, 604.894 1013.174 C 618.667 1060.290, 652.003 1104.577, 695.500 1133.545 C 724.782 1153.047, 751.088 1162.549, 783 1165.155 C 802.474 1166.745, 835.552 1165.651, 849.500 1162.957 C 888.552 1155.413, 925.276 1134.828, 956.696 1102.870 C 985.464 1073.610, 1003.749 1042.378, 1012.908 1006.857 C 1021.137 974.942, 1021.154 939.124, 1012.955 907.327 C 1003.161 869.341, 985.560 838.623, 957.440 810.440 C 925.131 778.057, 882.667 756.913, 837.211 750.573 C 825.770 748.978, 802.167 747.924, 793.500 748.621 M 800.791 838.324 C 797.101 839.017, 793.834 839.832, 793.531 840.135 C 793.228 840.438, 793.885 845.977, 794.990 852.443 C 800.210 882.976, 796.091 901.264, 780.538 916.605 C 761.838 935.050, 743.866 936.048, 708.500 920.603 C 704.100 918.682, 700.190 917.422, 699.812 917.805 C 698.324 919.307, 693.987 936.557, 692.411 947.235 C 687.049 983.572, 697.986 1018.310, 722.410 1042.518 C 744.816 1064.726, 774.656 1077.283, 810.583 1079.622 C 833.082 1081.087, 861.589 1073.339, 881.044 1060.472 C 891.246 1053.724, 905.294 1039.222, 911.851 1028.668 C 930.266 999.029, 937.380 960.539, 929.902 931 C 924.555 909.880, 914.584 893.225, 896.652 875.464 C 878.106 857.095, 858.442 844.985, 839 839.957 C 828.605 837.269, 810.518 836.496, 800.791 838.324 M 243.856 1344.508 C 230.508 1347.173, 220.404 1354.463, 215.698 1364.824 C 213.998 1368.567, 213.567 1371.496, 213.537 1379.500 C 213.517 1385, 214.069 1391.371, 214.764 1393.657 C 217.894 1403.955, 227.183 1413.002, 238.893 1417.156 L 245.500 1419.500 804.500 1419.782 C 1193.628 1419.978, 1365.475 1419.743, 1370 1419.007 C 1385.386 1416.506, 1396.342 1409.377, 1401.101 1398.770 C 1403.140 1394.226, 1403.468 1391.915, 1403.483 1382 C 1403.498 1371.682, 1403.233 1369.930, 1400.899 1364.954 C 1396.170 1354.872, 1389.042 1349.049, 1376.650 1345.143 C 1371.927 1343.654, 1325.057 1343.506, 811 1343.351 C 348.835 1343.211, 249.334 1343.414, 243.856 1344.508" stroke="none" fill="#fffdfa" fill-rule="evenodd"/></svg>