<?xml version="1.0" encoding="utf-8" standalone="no"?>
<!DOCTYPE svg PUBLIC "-//W3C//DTD SVG 1.1//EN" "http://www.w3.org/Graphics/SVG/1.1/DTD/svg11.dtd">
<svg version="1.1" width="240pt" height="240pt" viewBox="0 0 240 240" overflow="visible" xmlns="http://www.w3.org/2000/svg">
  <path d="M26.08117,1.188119 L213.9188,1.188119 C219.1608,1.048763 225.4671,3.427722 229.8097,7.770333 C234.1523,12.11294 236.5313,18.41921 236.3919,23.6612 L236.3919,216.3388 C236.5313,221.5808 234.1523,227.8871 229.8097,232.2297 C225.4671,236.5723 219.1608,238.9512 213.9188,238.8119 L26.08117,238.8119 C20.83917,238.9512 14.53291,236.5723 10.1903,232.2297 C5.847684,227.8871 3.468725,221.5808 3.608081,216.3388 L3.608081,23.6612 C3.468725,18.41921 5.847684,12.11294 10.1903,7.770333 C14.53291,3.427722 20.83917,1.048763 26.08117,1.188119 z" stroke="Black" stroke-width="0" fill="#FFFDFA" fill-opacity="1" />
  <path d="M69.03227,25.12968 C71.69785,24.81792 77.41869,24.92704 80.09985,25.34792 C88.20569,26.57938 95.09564,29.38525 102.9365,34.60727 C107.8779,37.91196 112.1647,41.279 120.8628,48.66778 L128.7349,55.29274 C142.3901,66.50061 150.1062,70.6003 160.6126,72.23705 C163.4185,72.67352 169.6693,72.62675 172.3505,72.15911 C176.4034,71.42647 178.8975,70.63147 182.3581,68.93237 C186.333,66.98385 189.2324,64.86386 192.4124,61.59035 C196.4498,57.41273 199.5362,52.44011 201.7497,46.54779 C203.1215,42.88458 203.8074,39.73577 204.1035,35.72962 C204.3529,32.4717 204.8985,29.4476 205.5376,27.7329 C206.2859,25.72203 207.7823,24.98939 209.8555,25.61292 C210.9,25.92468 211.7573,26.76644 212.1938,27.90437 C212.942,29.91524 213.0355,37.38196 212.3652,42.51046 C210.6661,55.63568 205.257,67.45149 197.0421,75.9782 C189.9807,83.30463 181.0487,87.8252 170.667,89.30607 C168.4846,89.61783 162.0467,89.57107 159.8332,89.22813 C155.11,88.4799 150.7765,87.1549 146.4897,85.14404 C140.0051,82.08875 134.3154,77.9579 117.3555,64.02209 C105.9294,54.62245 102.6247,52.0504 98.72768,49.49395 C92.30537,45.26956 86.49099,42.88458 79.9128,41.77782 C77.46545,41.37253 70.24815,41.37253 67.78522,41.77782 C59.88203,43.1184 53.60001,46.37632 48.00387,52.08158 C44.06007,56.11891 40.52156,61.48123 38.82245,66.06415 C37.29481,70.13265 36.49982,73.95174 35.59571,81.6367 C35.03453,86.34432 34.78512,87.26402 33.81866,88.15254 C32.29102,89.57107 29.45398,89.27489 28.16016,87.57578 C27.08458,86.17285 26.7884,84.08404 26.91311,78.59702 C27.06899,71.66029 27.91075,66.39149 29.84368,60.32771 C32.58719,51.70747 38.15216,42.60399 44.13801,36.88314 C51.12149,30.21142 59.60144,26.20527 69.03227,25.12968 z" stroke="Black" stroke-width="0" fill="#000000" fill-opacity="1" />
  <path d="M115.2511,90.36606 C118.3064,90.179 126.2719,90.3037 129.2804,90.59988 C146.6612,92.2834 163.1691,98.36278 179.2404,108.9939 C190.8068,116.6477 201.2353,126.2655 210.4791,137.8164 C212.412,140.2481 212.942,141.2146 213.0823,142.5552 C213.2849,144.379 212.5523,145.7819 209.3879,149.7101 C200.5027,160.6998 190.6354,169.7876 179.786,176.9582 C173.3481,181.2138 168.469,183.8481 160.3008,187.4802 L155.2971,189.7405 C153.7538,190.5355 148.22,192.2502 144.0112,193.2478 C138.3527,194.604 133.8166,195.3366 127.5657,195.929 C124.8222,196.1784 115.5005,196.1784 112.757,195.929 C103.6535,195.0716 96.32711,193.466 87.89392,190.4263 C65.64964,182.4608 46.66329,168.6653 31.2622,149.3048 C28.28487,145.5637 27.67693,144.379 27.8484,142.5708 C27.95752,141.3081 28.62781,140.139 30.70103,137.5826 C40.83332,125.1432 51.80737,115.1512 63.57642,107.6533 C79.56985,97.47425 97.43387,91.4884 115.2511,90.36606 z M154.3773,110.1162 L151.5247,109.0095 L150.4491,108.6042 L151.6027,109.8668 C157.5417,116.4138 161.4544,123.8806 163.3094,132.2982 C166.3958,146.1872 163.3717,160.8556 155.1256,172.0168 C153.7694,173.8562 152.7562,175.0876 151.5091,176.3658 C150.9947,176.9114 150.605,177.3479 150.6518,177.3479 L156.4194,174.885 C158.6485,173.8406 162.5144,171.7518 164.6655,170.4424 L167.7052,168.6497 C170.4176,167.1065 176.5749,162.6795 182.5919,157.9251 C186.8163,154.5892 188.188,153.3733 192.3501,149.2269 C195.265,146.2963 196.2003,145.2831 196.5121,144.6284 C197.0109,143.6152 197.0577,142.6331 196.6368,141.729 C196.0289,140.404 191.1342,135.3067 187.0345,131.737 C183.0595,128.2764 178.1649,124.2391 175.889,122.54 C168.9678,117.3647 160.8152,112.6571 154.3773,110.1162 z M86.84952,111.1295 C87.30157,110.5995 87.61333,110.163 87.55099,110.163 C87.0054,110.163 78.15134,114.4342 75.03371,116.2112 C70.66903,118.6897 64.652,122.9453 60.13144,126.78 C52.02561,133.6387 45.10447,140.2481 44.35624,141.8225 C43.56124,143.4749 44.0133,144.5037 46.83475,147.4654 C52.97648,153.9033 59.30527,159.1721 69.1258,166.0153 C74.89341,170.037 80.25573,172.9676 87.19246,175.8982 L87.72245,176.132 L87.34834,175.6644 C85.32188,173.217 84.62041,172.2973 83.3266,170.3332 C77.76163,161.9936 74.909,151.8769 75.23635,141.651 C75.61047,130.1314 79.56985,119.7185 86.84952,111.1295 z M124.3234,110.7242 C122.5464,110.4748 118.8676,110.3033 117.5114,110.4124 C106.9738,111.2698 97.87033,116.6009 92.1339,125.2835 C89.42156,129.3988 87.62892,134.4026 87.02099,139.5466 C86.77158,141.6666 86.92746,146.3898 87.33275,148.4319 C89.01627,157.2548 94.42535,165.2203 102.235,170.4112 C108.2053,174.4017 112.9908,175.6644 121.2525,175.4306 C125.9134,175.2903 128.5634,174.7291 132.3981,173.0612 C137.9474,170.6606 143.6215,165.8438 147.2068,160.4971 C150.9324,154.9789 152.6627,149.3672 152.6627,142.8981 C152.6627,140.0455 152.3821,137.7072 151.7274,135.1508 C150.1997,129.2273 147.4562,124.4417 143.0604,120.0459 C138.0254,115.0109 131.416,111.7062 124.3234,110.7242 z" stroke="Black" stroke-width="0" fill="#000000" fill-opacity="1" />
  <path d="M118.6493,124.395 C120.1614,124.1144 122.9828,124.2391 124.604,124.66 C127.6281,125.4394 130.699,127.3255 133.5984,130.1938 C136.3886,132.9529 137.9474,135.5561 138.7736,138.8452 C139.9427,143.4437 138.836,149.4451 135.9678,154.0748 C134.9389,155.7115 132.741,157.9718 131.151,159.0318 C128.1269,161.0271 123.6843,162.243 120.177,162.0092 C114.5808,161.6506 109.92,159.6865 106.4282,156.226 C102.6247,152.4536 100.91,147.0445 101.7518,141.3705 C102.0012,139.7181 102.6715,137.0214 102.9053,136.7876 L104.2615,137.224 C109.7797,139.6246 112.57,139.4843 115.4849,136.6005 C117.9167,134.2155 118.5558,131.3629 117.7452,126.5929 L117.5114,124.6756 z" stroke="Black" stroke-width="0" fill="#000000" fill-opacity="1" />
  <path d="M31.83896,203.3022 C32.68072,203.1307 48.19093,203.0995 120.2393,203.1307 C200.378,203.1463 207.6732,203.1774 208.4059,203.3957 C210.3388,204.0036 211.4611,204.9233 212.1938,206.4977 C212.5523,207.2615 212.5991,207.5421 212.5991,209.1477 C212.5991,210.6909 212.5367,211.0495 212.2249,211.7665 C211.4767,213.4189 209.7776,214.5256 207.377,214.9153 L119.2261,215.04 L32.08837,214.9933 L31.05956,214.6347 C29.23574,213.98 27.78605,212.5771 27.30281,210.9715 L27.10017,208.758 C27.11576,207.511 27.17811,207.0589 27.44311,206.4665 C28.17575,204.861 29.75015,203.723 31.83896,203.3022 z" stroke="Black" stroke-width="0" fill="#000000" fill-opacity="1" />
</svg>