<?xml version="1.0" standalone="no"?>
<!DOCTYPE svg PUBLIC "-//W3C//DTD SVG 20010904//EN"
 "http://www.w3.org/TR/2001/REC-SVG-20010904/DTD/svg10.dtd">
<svg version="1.0" xmlns="http://www.w3.org/2000/svg"
 width="1620.000000pt" height="1620.000000pt" viewBox="0 0 1620.000000 1620.000000"
 preserveAspectRatio="xMidYMid meet">
<metadata>
Created by potrace 1.16, written by Peter Selinger 2001-2019
</metadata>
<g transform="translate(0.000000,1620.000000) scale(0.100000,-0.100000)"
fill="#000000" stroke="none">
<path d="M4825 14185 c-605 -69 -1149 -326 -1597 -754 -384 -367 -741 -951
-917 -1504 -124 -389 -178 -727 -188 -1172 -8 -352 11 -486 80 -576 83 -109
265 -128 363 -37 62 57 78 116 114 418 58 493 109 738 207 999 109 294 336
638 589 897 359 366 762 575 1269 661 158 26 621 26 778 0 422 -71 795 -224
1207 -495 250 -164 462 -329 1195 -932 1088 -894 1453 -1159 1869 -1355 275
-129 553 -214 856 -262 142 -22 555 -25 695 -5 666 95 1239 385 1692 855 527
547 874 1305 983 2147 43 329 37 808 -11 937 -28 73 -83 127 -150 147 -133 40
-229 -7 -277 -136 -41 -110 -76 -304 -92 -513 -19 -257 -63 -459 -151 -694
-142 -378 -340 -697 -599 -965 -204 -210 -390 -346 -645 -471 -222 -109 -382
-160 -642 -207 -172 -30 -573 -33 -753 -5 -674 105 -1169 368 -2045 1087 -77
63 -304 254 -505 425 -558 474 -833 690 -1150 902 -503 335 -945 515 -1465
594 -172 27 -539 34 -710 14z"/>
<path d="M7790 10000 c-1143 -72 -2289 -456 -3315 -1109 -755 -481 -1459
-1122 -2109 -1920 -133 -164 -176 -239 -183 -320 -11 -116 28 -192 219 -432
988 -1242 2206 -2127 3633 -2638 541 -195 1011 -298 1595 -353 176 -16 774
-16 950 0 401 38 692 85 1055 172 270 64 625 174 724 225 26 12 170 78 321
145 524 233 837 402 1250 675 696 460 1329 1043 1899 1748 203 252 250 342
237 459 -9 86 -43 148 -167 304 -593 741 -1262 1358 -2004 1849 -1031 682
-2090 1072 -3205 1180 -193 19 -704 27 -900 15z m2510 -1267 c413 -163 936
-465 1380 -797 146 -109 460 -368 715 -590 263 -229 577 -556 616 -641 27 -58
24 -121 -8 -186 -20 -42 -80 -107 -267 -295 -267 -266 -355 -344 -626 -558
-386 -305 -781 -589 -955 -688 -44 -25 -132 -77 -195 -115 -138 -84 -386 -218
-529 -285 -105 -50 -359 -158 -370 -158 -3 0 22 28 55 63 80 82 145 161 232
279 529 716 723 1657 525 2548 -119 540 -370 1019 -751 1439 l-74 81 69 -26
c37 -14 120 -46 183 -71z m-4332 -65 c-467 -551 -721 -1219 -745 -1958 -21
-656 162 -1305 519 -1840 83 -126 128 -185 258 -342 l24 -30 -34 15 c-445 188
-789 376 -1159 634 -630 439 -1036 777 -1430 1190 -181 190 -210 256 -159 362
48 101 492 525 1012 965 290 246 676 519 956 678 200 114 768 388 803 388 4 0
-16 -28 -45 -62z m2404 26 c455 -63 879 -275 1202 -598 282 -282 458 -589 556
-969 42 -164 60 -314 60 -497 0 -415 -111 -775 -350 -1129 -230 -343 -594
-652 -950 -806 -246 -107 -416 -143 -715 -152 -530 -15 -837 66 -1220 322
-501 333 -848 844 -956 1410 -26 131 -36 434 -20 570 39 330 154 651 328 915
368 557 952 899 1628 954 87 7 323 -4 437 -20z"/>
<path d="M8008 7817 c-37 -7 -70 -15 -73 -18 -3 -3 4 -59 15 -123 52 -306 11
-489 -145 -642 -187 -185 -366 -194 -720 -40 -44 19 -83 32 -87 28 -15 -15
-58 -188 -74 -294 -54 -364 56 -711 300 -953 224 -222 523 -348 882 -371 225
-15 510 63 704 191 102 68 243 213 309 318 184 297 255 682 180 977 -53 211
-153 378 -332 555 -186 184 -383 305 -577 355 -104 27 -285 35 -382 17z"/>
<path d="M2439 2755 c-134 -27 -235 -100 -282 -203 -17 -38 -21 -67 -22 -147
0 -55 6 -119 13 -142 31 -103 124 -193 241 -235 l66 -23 5590 -3 c3891 -2
5610 1 5655 8 154 25 263 96 311 202 20 46 24 69 24 168 0 103 -3 121 -26 170
-47 101 -119 160 -243 199 -47 14 -515 16 -5656 17 -4622 2 -5617 0 -5671 -11z"/>
</g>
</svg>
