<?xml version="1.0" encoding="UTF-8" standalone="no"?>
<svg
   version="1.1"
   width="240pt"
   height="240pt"
   viewBox="0 0 240 240"
   overflow="visible"
   id="svg5"
   sodipodi:docname="SVGLogoBetter.svg"
   inkscape:version="1.3.2 (091e20e, 2023-11-25, custom)"
   xmlns:inkscape="http://www.inkscape.org/namespaces/inkscape"
   xmlns:sodipodi="http://sodipodi.sourceforge.net/DTD/sodipodi-0.dtd"
   xmlns="http://www.w3.org/2000/svg"
   xmlns:svg="http://www.w3.org/2000/svg">
  <defs
     id="defs5" />
  <sodipodi:namedview
     id="namedview5"
     pagecolor="#000000"
     bordercolor="#000000"
     borderopacity="0.25"
     inkscape:showpageshadow="2"
     inkscape:pageopacity="0.0"
     inkscape:pagecheckerboard="0"
     inkscape:deskcolor="#d1d1d1"
     inkscape:document-units="pt"
     inkscape:zoom="2.4284699"
     inkscape:cx="88.944897"
     inkscape:cy="166.97757"
     inkscape:window-width="2560"
     inkscape:window-height="1334"
     inkscape:window-x="-11"
     inkscape:window-y="74"
     inkscape:window-maximized="1"
     inkscape:current-layer="svg5" />
  <path
     d="m 41.70932,20.958483 h 156.58132 c 4.36978,-0.116167 9.62671,1.866932 13.24671,5.486929 3.61991,3.619994 5.60307,8.876895 5.48685,13.246619 V 200.30797 c 0.11622,4.36969 -1.86694,9.62663 -5.48685,13.24662 -3.62,3.62001 -8.87693,5.60307 -13.24671,5.48694 H 41.70932 c -4.369724,0.11613 -9.626617,-1.86693 -13.246616,-5.48694 -3.620001,-3.61999 -5.6031,-8.87693 -5.486933,-13.24662 V 39.692031 c -0.116167,-4.369724 1.866932,-9.626625 5.486933,-13.246619 3.619999,-3.619997 8.876892,-5.603096 13.246616,-5.486929 z"
     stroke="#000000"
     stroke-width="0"
     fill="#fffdfa"
     fill-opacity="1"
     id="path1" />
  <path
     d="M77.52897,40.94526 C79.75018,40.68547 84.51731,40.7764 86.7515,41.12711 C93.50604,42.15328 99.24738,44.49139 105.7811,48.84286 C109.8988,51.59663 113.4709,54.40236 120.719,60.55938 L127.2787,66.07991 C138.6575,75.41935 145.0873,78.83559 153.8422,80.19948 C156.1803,80.56319 161.3891,80.52422 163.6233,80.13453 C167.0005,79.52403 169.0789,78.86156 171.9626,77.44572 C175.2748,75.82203 177.6909,74.05546 180.3407,71.32766 C183.7051,67.84648 186.2769,63.70284 188.1214,58.79281 C189.2645,55.74028 189.8361,53.1164 190.0828,49.77811 C190.2906,47.0633 190.7453,44.54335 191.2779,43.1145 C191.9014,41.43885 193.1483,40.82835 194.8759,41.34793 C195.7463,41.60772 196.4607,42.30915 196.8244,43.25739 C197.4479,44.93303 197.5258,51.15499 196.9673,55.42853 C195.5514,66.36568 191.044,76.21171 184.1986,83.31696 C178.3144,89.42201 170.8714,93.18897 162.2204,94.42297 C160.4019,94.68275 155.0372,94.64379 153.1927,94.35802 C149.2569,93.73453 145.6458,92.63042 142.0737,90.95478 C136.6701,88.40883 131.9289,84.96662 117.7964,73.35401 C108.2751,65.52136 105.5213,63.37809 102.2739,61.24782 C96.92227,57.72767 92.07719,55.74028 86.59563,54.81803 C84.55628,54.4803 78.54215,54.4803 76.48981,54.81803 C69.90414,55.93512 64.66938,58.64993 60.00616,63.40408 C56.71982,66.76835 53.77121,71.23673 52.35535,75.05565 C51.08238,78.4459 50.41992,81.62832 49.66653,88.03214 C49.19891,91.95496 48.99107,92.72134 48.18573,93.46174 C46.91276,94.64379 44.54868,94.39699 43.47054,92.98113 C42.57427,91.81208 42.32747,90.07149 42.43139,85.4992 C42.56128,79.71887 43.26271,75.32841 44.87341,70.27551 C47.15956,63.09233 51.7968,55.50647 56.78477,50.73933 C62.60405,45.17983 69.67033,41.84154 77.52897,40.94526 z"
     stroke="Black"
     stroke-width="0"
     fill="#000000"
     fill-opacity="1"
     id="path2" />
  <path
     d="M116.0428,95.30625 C118.5887,95.15038 125.2263,95.25429 127.7333,95.50109 C142.2166,96.90395 155.9725,101.9699 169.3646,110.8287 C179.0028,117.2066 187.6928,125.221 195.3956,134.8463 C197.0062,136.8726 197.4479,137.678 197.5648,138.7951 C197.7336,140.3148 197.1232,141.4839 194.4863,144.7572 C187.0823,153.9148 178.86,161.4876 169.8192,167.4628 C164.4546,171.009 160.3889,173.2041 153.5824,176.2307 L149.4128,178.1142 C148.1268,178.7767 143.5155,180.2056 140.0084,181.0368 C135.2932,182.167 131.5133,182.7774 126.3045,183.2711 C124.0183,183.4789 116.2506,183.4789 113.9645,183.2711 C106.3786,182.5566 100.2736,181.2187 93.24625,178.6857 C74.71025,172.0481 58.88906,160.5524 46.05545,144.4195 C43.57446,141.302 43.06787,140.3148 43.21076,138.8081 C43.30169,137.7559 43.86023,136.7817 45.58783,134.6514 C54.03099,124.2858 63.17559,115.9595 72.98265,109.7116 C86.30986,101.2295 101.1958,96.24149 116.0428,95.30625 z M148.6464,111.7639 L146.2693,110.8417 L145.373,110.504 L146.3343,111.5561 C151.2832,117.0116 154.5437,123.2337 156.0894,130.248 C158.6613,141.8216 156.1413,154.0447 149.2699,163.3452 L146.2563,166.9692 C145.8277,167.4238 145.5029,167.7876 145.5419,167.7876 L150.348,165.7353 L157.2194,162.0333 L159.7524,160.5394 C162.0126,159.2535 167.1434,155.5645 172.1574,151.6027 C175.6775,148.8229 176.8206,147.8097 180.2888,144.3546 C182.7178,141.9125 183.4972,141.0682 183.757,140.5227 C184.1726,139.6784 184.2116,138.86 183.8609,138.1066 C183.3543,137.0025 179.2756,132.755 175.8594,129.7803 L166.5719,122.1166 C160.8045,117.804 154.011,113.8812 148.6464,111.7639 z M92.37595,112.6083 C92.75265,112.1666 93.01244,111.8029 92.96049,111.8029 C92.50585,111.8029 85.12782,115.3621 82.52993,116.8428 C78.89288,118.9081 73.87893,122.4543 70.11198,125.6497 C63.35745,131.365 57.59011,136.8726 56.96662,138.1845 C56.30415,139.5615 56.68085,140.4187 59.03194,142.8867 C64.1498,148.2514 69.42354,152.6418 77.60691,158.3442 C82.41302,161.6955 86.8814,164.1375 92.66173,166.5796 L93.10336,166.7744 L92.79162,166.3847 C91.10298,164.3453 90.51846,163.5789 89.44033,161.9423 C84.80309,154.993 82.42601,146.5628 82.69878,138.0416 C83.01054,128.4424 86.30986,119.7654 92.37595,112.6083 z M123.6027,112.2705 C122.1219,112.0627 119.0564,111.9198 117.9263,112.0107 C109.1454,112.7252 101.5595,117.1675 96.77939,124.4027 C94.51922,127.8319 93.02542,132.0016 92.51884,136.288 C92.31101,138.0546 92.4409,141.9904 92.77863,143.6921 C94.1815,151.0441 98.68884,157.6817 105.1966,162.0073 C110.1716,165.3325 114.1593,166.3847 121.0437,166.1899 C124.9276,166.073 127.1358,165.6053 130.3313,164.2155 C134.9554,162.2151 139.6836,158.2013 142.6712,153.7459 C145.7757,149.1477 147.2176,144.4715 147.2176,139.0808 C147.2176,136.7038 146.9838,134.7553 146.4382,132.625 C145.1652,127.689 142.8791,123.7012 139.2161,120.0382 C135.0204,115.8426 129.5129,113.0888 123.6027,112.2705 z"
     stroke="Black"
     stroke-width="0"
     fill="#000000"
     fill-opacity="1"
     id="path3" />
  <path
     d="M118.8745,123.6623 C120.1345,123.4285 122.4855,123.5324 123.8365,123.8831 C126.3564,124.5326 128.9154,126.1043 131.3315,128.4944 C133.6565,130.7935 134.9554,132.9628 135.6439,135.7036 C136.6181,139.5355 135.6959,144.5364 133.3059,148.3943 C132.4485,149.7581 130.617,151.6416 129.2921,152.5249 C126.7721,154.1876 123.0701,155.2008 120.1475,155.006 C115.4842,154.7071 111.6004,153.0705 108.6907,150.1869 C105.5213,147.0433 104.0925,142.536 104.7939,137.8079 C105.0017,136.4309 105.5603,134.1838 105.7551,133.989 L106.8852,134.3526 C111.4835,136.353 113.8086,136.2361 116.2376,133.8331 C118.264,131.8457 118.7966,129.4686 118.1211,125.4938 L117.9263,123.8961 z"
     stroke="Black"
     stroke-width="0"
     fill="#000000"
     fill-opacity="1"
     id="path4" />
  <path
     d="M46.53606,189.4151 C47.23749,189.2722 60.16204,189.2462 120.1994,189.2722 C186.9784,189.2852 193.0574,189.3111 193.668,189.493 C195.2787,189.9996 196.2139,190.766 196.8244,192.0779 C197.1232,192.7144 197.1622,192.9482 197.1622,194.2861 C197.1622,195.5721 197.1102,195.8709 196.8503,196.4683 C196.2269,197.8453 194.811,198.7675 192.8106,199.0922 L119.3551,199.1961 L46.74389,199.1572 L45.88659,198.8584 C44.36682,198.3128 43.1588,197.1438 42.75612,195.8059 L42.58726,193.9614 C42.60025,192.9223 42.65221,192.5455 42.87303,192.0519 C43.48354,190.714 44.79547,189.7657 46.53606,189.4151 z"
     stroke="Black"
     stroke-width="0"
     fill="#000000"
     fill-opacity="1"
     id="path5" />
</svg>
